<?xml version="1.0"?>

<svg version="1.1" id="Layer_1" xmlns="http://www.w3.org/2000/svg" xmlns:xlink="http://www.w3.org/1999/xlink" x="0px" y="0px" viewBox="0 0 327.9 176.7" style="enable-background:new 0 0 327.9 176.7;" xml:space="preserve">

<g>
&#x9;<g>
&#x9;&#x9;<path class="st0" d="M219.9,96h2.2c1.8,0,3.2,0.2,4.6,1.4c1.4,1.2,2,2.7,2,4.5c0,1.7-0.6,3.2-1.9,4.4c-1.4,1.3-2.8,1.5-4.7,1.5&#xA;&#x9;&#x9;&#x9;h-2.2V96z M222.1,106.6c1.4,0,2.7-0.2,3.7-1.2c1-0.9,1.5-2.2,1.5-3.5c0-1.3-0.5-2.7-1.5-3.5c-1.1-1-2.3-1.1-3.7-1.1h-1v9.4H222.1z&#xA;&#x9;&#x9;&#x9;"></path>
&#x9;&#x9;<path class="st0" d="M232.3,104.5l-1.4,3.4h-1.4l5.5-12.4l5.3,12.4h-1.5l-1.4-3.4H232.3z M234.8,98.5l-2,4.7h4L234.8,98.5z"></path>
&#x9;&#x9;<path class="st0" d="M241.6,95.5l9.2,9.7V96h1.3v12.4l-9.2-9.7v9.1h-1.3V95.5z"></path>
&#x9;&#x9;<path class="st0" d="M263.6,98.6c-0.9-1-2.2-1.6-3.6-1.6c-2.6,0-4.8,2.3-4.8,4.9s2.1,4.9,4.8,4.9c1.3,0,2.6-0.6,3.6-1.6v1.6&#xA;&#x9;&#x9;&#x9;c-1,0.7-2.3,1.2-3.5,1.2c-3.3,0-6.2-2.7-6.2-6.1c0-3.4,2.8-6.2,6.2-6.2c1.3,0,2.5,0.4,3.5,1.2V98.6z"></path>
&#x9;&#x9;<path class="st0" d="M265.8,96h6.1v1.2h-4.8v3.5h4.7v1.2h-4.7v4.6h4.8v1.2h-6.1V96z"></path>
&#x9;&#x9;<path class="st0" d="M228.9,114.5c-0.9-1-2.2-1.6-3.6-1.6c-2.6,0-4.8,2.3-4.8,4.9s2.2,4.9,4.8,4.9c1.3,0,2.6-0.6,3.6-1.6v1.6&#xA;&#x9;&#x9;&#x9;c-1,0.7-2.3,1.2-3.5,1.2c-3.3,0-6.2-2.7-6.2-6.1c0-3.4,2.8-6.2,6.2-6.2c1.3,0,2.5,0.4,3.5,1.2V114.5z"></path>
&#x9;&#x9;<path class="st0" d="M242.9,117.8c0,3.4-2.8,6.1-6.2,6.1c-3.4,0-6.2-2.7-6.2-6.1c0-3.4,2.8-6.1,6.2-6.1&#xA;&#x9;&#x9;&#x9;C240.1,111.7,242.9,114.4,242.9,117.8z M231.8,117.8c0,2.7,2.2,4.9,4.9,4.9c2.7,0,4.9-2.2,4.9-4.9c0-2.7-2.1-4.9-4.9-4.9&#xA;&#x9;&#x9;&#x9;C234,112.9,231.8,115.1,231.8,117.8z"></path>
&#x9;&#x9;<path class="st0" d="M246.2,111.2l4.3,9.9l4.3-9.9l2.4,12.5h-1.4l-1.5-8h0l-3.8,8.5l-3.8-8.5h0l-1.5,8h-1.4L246.2,111.2z"></path>
&#x9;&#x9;<path class="st0" d="M260,123.7h-1.3v-11.8h1.9c1,0,2.1,0,2.9,0.6c0.9,0.6,1.3,1.6,1.3,2.7c0,1-0.4,1.9-1.1,2.5&#xA;&#x9;&#x9;&#x9;c-0.8,0.7-1.8,0.8-2.8,0.8h-1V123.7z M260,117.3h0.9c1.5,0,2.7-0.4,2.7-2.1c0-1.9-1.6-2.1-3.1-2.1H260V117.3z"></path>
&#x9;&#x9;<path class="st0" d="M267.1,120.4l-1.4,3.4h-1.4l5.5-12.4l5.3,12.4h-1.5l-1.4-3.4H267.1z M269.7,114.4l-2,4.7h4L269.7,114.4z"></path>
&#x9;&#x9;<path class="st0" d="M276.4,111.4l9.2,9.7v-9.2h1.3v12.4l-9.2-9.7v9.1h-1.3V111.4z"></path>
&#x9;&#x9;<path class="st0" d="M288.4,111.9h1.5l3,5.3l3-5.3h1.5l-3.9,6.7v5.1h-1.3v-5.1L288.4,111.9z"></path>
&#x9;</g>
</g>
<path class="st0" d="M102.6,75.9c-0.9,1.2-1.8,2.4-2.7,3.6c-1.8,2.3-3.7,4.5-5.7,6.5c-1.1,1.1-2.3,2-3.3,2.5c-1.5,0.7-3.2,0.2-3.2-2&#xA;&#x9;c0-3.5,2.8-7.1,4.9-9.6c0.6-0.7,2-3.2-0.1-2.7c-2.1,0.5-3.9,2.3-5.3,3.9c-2.1,2.4-12.6,18.3-3.1,17.4c6.3-0.6,12.1-6.8,16.1-11.1&#xA;&#x9;c3.1-3.3,5.9-6.9,8.5-10.5c1.7-1.5,3.6-2.7,6.1-2.1c2.4,0.6,2.9,3.5,2.8,5.6c-0.1,2.8-1.7,5.7-3.2,7.3c0-0.1-0.4,0.3-0.6,0.5&#xA;&#x9;c-0.1,0-0.9,0.7-0.9,0.6c-0.5,0.4-1.5,0.8-2.2,1.1c-2.6,1.2-5.5,1.7-8.3,2c-2,0.2-4.2,2.4-5.3,3.9c-0.7,0.8-1.9,2.9,0.1,2.7&#xA;&#x9;c11.9-1.2,26-10.2,27.8-23c0.5-3.2-0.6-6.7-4-7.5c-2.4-0.6-4.9,0.2-7.3,1.5c0.7-1,1.3-2.1,1.9-3.2c4-6.7,7.9-13.9,10-21.5&#xA;&#x9;c0.6-2-1.8-1-2.7-0.5c-1.7,1-4,2.8-4.6,4.7c-2.9,9.9-8.2,19.4-14.3,27.9C103.4,74.6,102.9,75.3,102.6,75.9z"></path>
<path class="st0" d="M238.3,82.7c-7.1,0.1-14.3,1.5-21.2,4c1-6,1.4-12.2,0.7-18.1c0-0.9-0.1-1.8-0.4-2.6c-0.7-2.3-7.9,3.2-7.5,5.5&#xA;&#x9;c0.1,0.7,0.2,1.5,0.3,2.2c0,3-1.5,5.8-2.8,7.5c-0.3,0.4-0.6,0.8-0.9,1.2c-0.2,0.2-0.3,0.4-0.5,0.6c-0.1,0.1-0.1,0.1-0.2,0.2&#xA;&#x9;c0,0-0.1,0.1-0.1,0.1c-0.4,0.4-0.7,0.8-1.1,1.1c-0.2,0.2-0.4,0.4-0.5,0.5c-0.1,0-0.1,0.1-0.2,0.2c-0.4,0.3-0.8,0.7-1.1,1&#xA;&#x9;c0,0,0,0-0.1,0.1c-0.2,0.2-0.4,0.3-0.7,0.5c-0.2,0.1-0.4,0.3-0.6,0.4c-0.1,0-0.1,0.1-0.1,0.1c0,0,0,0,0,0c-0.3,0.2-0.7,0.4-1,0.6&#xA;&#x9;c0.1-0.1-0.6,0.3-0.7,0.3c-0.2,0.1-0.3,0.1-0.3,0.2c0,0-0.1,0-0.3,0.1c-0.8,0.2-0.6,0.2-1.4,0.1c-0.9-0.1-1.4-1-1.5-2.1&#xA;&#x9;c0-0.7,0-1.4,0.1-2c1.6-1.8,3-3.8,4.2-5.9c1.1-1.8,2-3.8,2.8-5.8c0.8-2,2-4.7,1.9-6.9c-0.1-2.3-5.3,2-5.7,2.4&#xA;&#x9;c-3.8,4-6.4,9.9-8.6,14.9c-0.5,1.1-1,2.4-1.4,3.6c-0.1,0-0.1,0.1-0.2,0.1c0,0-0.7,0.5-0.9,0.5c-0.3,0.2-1.3,0.6-2.3,0.9&#xA;&#x9;c-0.9,0.2-1.8,0.2-2.8-0.1c-1.9-0.5-2.9-2.6-3.1-4.5c-0.2-1.4-0.1-2.8,0.1-4.2c3.6-4.6,6.7-9.5,9.6-14.6c0.9-0.3,1.8-0.6,2.7-0.9&#xA;&#x9;c2.1-0.7,3.9-2.2,5.3-3.9c0.4-0.5,2-3.4-0.1-2.7c-1.5,0.5-3.1,1-4.7,1.5c0.2-0.4,0.4-0.7,0.6-1.1c1.4-2.8,2.9-5.7,4-8.7&#xA;&#x9;c0.2-0.6,0.5-1.4,0.5-2.1c0-2.3-4.6,1.2-4.9,1.5c-2.2,1.8-3.8,4.4-5.4,6.7c-1.4,1.9-2.7,3.8-4,5.7c-4.8,0.6-9.6,0.4-14-1.4&#xA;&#x9;c-2.2-0.9-4.8-2.9-5.6-5.3c-0.4-1.2-8.1,3.6-7.2,6.3c0.9,2.7,3.9,4.6,6.4,5.7c4.9,2.2,10.7,2.2,16.4,1.2c-2.4,4.1-4.5,8.4-5.9,12.9&#xA;&#x9;c-0.2,0.7-0.5,1.6-0.7,2.4c-0.2,0.2-0.3,0.4-0.5,0.6c-0.6,0.7-1.4,1.5-2.1,2.3c-0.1,0.1-0.2,0.2-0.2,0.2c-0.1,0.1-0.2,0.1-0.3,0.3&#xA;&#x9;c-0.1,0.1-1.6,1.3-0.8,0.7c-1.2,1-1.6,1.3-3.5,1.7c-1.9,0.4-3.2-0.4-3.2-2.4c0-2.2,1.3-4.6,2.3-6.5c0.3-0.5,0.5-1,0.8-1.4&#xA;&#x9;c2.1-1.6,3.8-3.8,2.8-5.4c-0.3-0.5-1.4,0-1.8,0.1c-0.5,0.2-1,0.4-1.5,0.7c-0.1,0-0.1,0-0.2,0c-1.2-0.3-2.4-0.9-3.5-1.5&#xA;&#x9;c-0.8-0.5-3.2-2.2-3.7-3.7c0.2-0.4,0.4-0.9,0.6-1.3c0.2-0.4,0.2-0.8,0.3-1.3c0.1-1-1.5-0.5-1.9-0.3c-3,1.3-6.3,4.3-6.4,7.8v0&#xA;&#x9;c-0.5,1-1,2-1.3,2.7c-1.4,3-3.1,6-5,8.6c-1.8,2.5-2.5,3.5-5.5,3.9c-2.9,0.4-6.1-0.5-7.8-2.8c2.1-1,4.1-2.4,5.8-3.7&#xA;&#x9;c3.1-2.4,6-5.3,8.3-8.4c1.2-1.6,2.8-3.8,2.6-5.9c-0.5-3.7-7.1-0.7-8.7,0c-5.6,2.7-10.5,7.1-13.9,12.3c-2.9,4.4-4.3,11.1,1.2,14.1&#xA;&#x9;c5.2,2.8,11.3,0.6,15.7-2.6c4.8-3.6,8.6-8.4,11.6-13.7c0.7,0.5,1.5,0.9,2.1,1.3c1.2,0.6,2.6,1.2,4,1.4c-0.7,1.3-1.3,2.6-1.9,3.7&#xA;&#x9;c-1.2,2.4-4.4,8.6-1,10.6c3.1,1.8,7.8-0.7,10.4-2.3c2.1-1.3,3.9-2.8,5.7-4.4c0,2.9,1,5.5,3.8,6.7c3.8,1.6,8.5-0.7,12.2-3.3&#xA;&#x9;c0,0.2,0,0.3,0,0.5c0.2,4.8,5.7,3.2,8.4,1.8c5.2-2.6,9.7-6.5,13.5-10.9c-0.1,2.3-0.4,4.5-0.6,6.7c-7.5,3.5-14.5,8.1-20.5,13.1&#xA;&#x9;c-2.2,1.8-4.3,3.7-6.3,5.7c-10.3,9.4-25.6,8.6-38.4,6.4c-7.7-1.3-15.2-3.3-22.8-5.3c-8.4-2.1-16.8-4-25.2-5.9&#xA;&#x9;c-10.3-2.2-19.2-4.1-29.6-6C74,87.4,87.7,60.6,88.6,59c5.1-3,8-5.7,11.8-10.1c3.4-4,5.9-8.6,6.7-13.8c0.3-2.2-0.7-4.5-3-4.7&#xA;&#x9;c-3.4-0.3-7.1,3.3-9.1,5.6c-3.6,4.2-5.9,10-8.5,14.9c-1.2,2.2-2.3,4.4-3.5,6.7c-0.4,0.2-0.9,0.4-1.3,0.5c-6.2,2.6-12.9,4.5-19.5,5.4&#xA;&#x9;c-2,0.3-4.1,2.4-5.3,3.9c-0.6,0.8-2,3,0.1,2.7c7.6-1.1,15.5-3.3,22.9-6.6c-0.7,1.3-1.4,2.7-2.1,4c-5.2,9.8-10.5,19.7-16.5,29.1&#xA;&#x9;c-1.8-0.3-3.6-0.6-5.3-0.9c-10.1-1.7-20.6,5.1-24.3,14.6c-1.3,3.3-1,7.2,2.3,9.1c3.3,1.9,8.2,1.3,11.6,0c8.1-3.2,12.5-8.7,16.8-14.6&#xA;&#x9;c6.4,1.2,11,2.1,17.4,3.4c10.4,2.1,20.8,4.3,31.1,6.9c9.4,2.3,18.7,4.9,28.3,6.6c8.3,1.4,17,1.9,25.3,0.1c3.7-0.8,7.2-2.1,10.5-3.9&#xA;&#x9;c-0.8,1-1.5,2-2.2,3.1c-3.4,4.8-6.6,10.2-7.3,16.2c-0.3,3.1,0.7,6.4,3.6,8c3.7,2,8.1,0.4,11.5-1.5c8.8-4.7,15.8-12.9,21.5-20.9&#xA;&#x9;c5.9-8.3,10.4-17.5,13.2-27.2c0.3-1.1,0.6-2.2,0.9-3.4c1.5-0.4,3-0.9,4.5-1.2c3.7-0.9,8.2-1.6,11.4-1.7c2,0,3.9-1.7,5.1-3.1&#xA;&#x9;C237.2,86.1,240,82.7,238.3,82.7z M129.8,81.1c0.8-4.3,5.2-8.9,9.5-8.1c2.4,0.4-2.1,4.7-2.4,5c-1.6,1.6-4.8,3-6.4,3&#xA;&#x9;C130.3,81,130.1,81,129.8,81.1z M98.8,37.5c2.2,1.5,0.1,6.1-0.6,7.9c-0.9,2.1-2.4,4-4,5.6c-1.1,1.1-1.9,1.8-3.5,2.8&#xA;&#x9;C90.6,53.7,98.7,37.6,98.8,37.5z M50.4,111.8c-0.8,0.9-0.3,0.4-1.4,1.3c-0.3,0.2-0.3,0.2-0.6,0.4c0,0-0.8,0.4-0.7,0.4&#xA;&#x9;c-0.9,0.3-1.9,0.3-2.8,0.2c-4.1-0.1-6.9-2.6-6.3-6.8c0.6-3.7,2.4-4.5,6-5c3.8-0.6,8.3,0.8,12.2,1.6&#xA;&#x9;C54.7,106.7,52.6,109.4,50.4,111.8z M189.7,132.6c-2.9,3.1-6.8,7.2-11.5,6.9c-3.2-0.2-5.1-2.9-5.4-5.9c-0.5-5.5,3.4-11.1,6.4-15.3&#xA;&#x9;c4.4-6.2,9.8-11.6,15.9-16c4.3-3.1,9-5.6,13.9-7.6C206.3,108.8,199.4,122,189.7,132.6z M97.4,71.3c-1.3,1.1-3,1.3-3.7,0.5&#xA;&#x9;c-0.7-0.9-0.2-2.4,1.1-3.5c1.3-1.1,3-1.3,3.7-0.5C99.2,68.6,98.7,70.2,97.4,71.3"></path>
</svg>